<svg width="48" height="48" viewBox="0 0 48 48" fill="none" xmlns="http://www.w3.org/2000/svg">
    <path
        d="M40.9236 18.5845C41.9388 18.4321 42.8938 19.1319 42.958 20.1565C43.211 24.1963 42.3187 28.2396 40.3649 31.8133C38.113 35.9325 34.5748 39.2014 30.2906 41.1208C26.0064 43.0402 21.2117 43.5047 16.6387 42.4432C12.0658 41.3817 7.96589 38.8527 4.96524 35.2423C1.9646 31.632 0.228099 27.1387 0.0209426 22.4487C-0.186213 17.7588 1.14736 13.1299 3.818 9.26902C6.48864 5.40815 10.3496 2.52749 14.8111 1.06697C18.6819 -0.200152 22.8202 -0.337913 26.7456 0.649704C27.7411 0.90018 28.2544 1.96707 27.919 2.93728V2.93728C27.5835 3.90748 26.5261 4.41177 25.5262 4.17933C22.373 3.44633 19.0667 3.58557 15.9677 4.60004C12.2776 5.80802 9.08425 8.19059 6.87539 11.3839C4.66653 14.5772 3.56354 18.4057 3.73488 22.2847C3.90622 26.1637 5.34246 29.88 7.82426 32.8662C10.3061 35.8523 13.697 37.944 17.4793 38.8219C21.2615 39.6999 25.2272 39.3157 28.7706 37.7282C32.314 36.1406 35.2405 33.4369 37.103 30.03C38.6672 27.1689 39.4088 23.9438 39.2649 20.7097C39.2193 19.6841 39.9084 18.7369 40.9236 18.5845V18.5845Z"
        fill="white" />
    <path d="M22 9H42" stroke="white" stroke-width="3" stroke-linecap="round" />
    <path d="M39.2051 38.5422L46.2051 45.5422" stroke="white" stroke-width="3" stroke-linecap="round" />
    <path d="M25 17H35" stroke="white" stroke-width="3" stroke-linecap="round" />
</svg>