<svg width="41" height="28" viewBox="0 0 41 28" fill="none" xmlns="http://www.w3.org/2000/svg">
    <path fill-rule="evenodd" clip-rule="evenodd"
        d="M14.4053 18.5643V15.5135H9.77082C7.97929 15.5135 6.46039 16.8309 6.20703 18.6044C5.87133 20.9542 7.86195 22.9801 10.2173 22.6857L10.8352 22.6084C12.8748 22.3535 14.4053 20.6197 14.4053 18.5643Z"
        fill="white" />
    <path
        d="M14.4053 8.86487V8.18727C14.4053 6.39397 14.4053 5.49732 14.9305 4.87734C15.4557 4.25737 16.3402 4.10996 18.1091 3.81514L20.7206 3.3799C20.8711 3.35481 20.9463 3.34227 20.9869 3.38625C21.0275 3.43022 21.009 3.50424 20.972 3.65225L19.9799 7.6207C19.9634 7.68682 19.9551 7.71988 19.9318 7.74205C19.9086 7.76421 19.8752 7.77089 19.8083 7.78426L14.4053 8.86487ZM14.4053 8.86487V15.5135M14.4053 15.5135V18.5643C14.4053 20.6197 12.8748 22.3535 10.8352 22.6084L10.2173 22.6857C7.86195 22.9801 5.87133 20.9542 6.20703 18.6044C6.46039 16.8309 7.97929 15.5135 9.77082 15.5135H14.4053Z"
        stroke="white" stroke-width="2" />
    <path d="M17.7305 22.1622H22.1629H26.5953" stroke="white" stroke-width="2" stroke-linecap="round" />
    <path d="M17.7305 18.8378H26.5953" stroke="white" stroke-width="2" stroke-linecap="round" />
    <path d="M17.7305 15.5135H26.5953" stroke="white" stroke-width="2" stroke-linecap="round" />
    <path d="M17.7305 12.1892H35.4602" stroke="white" stroke-width="2" stroke-linecap="round" />
    <path d="M24.3789 8.86487L35.46 8.86486" stroke="white" stroke-width="2" stroke-linecap="round" />
    <path d="M24.3789 5.54054L35.46 5.54054" stroke="white" stroke-width="2" stroke-linecap="round" />
    <path d="M24.3789 2.21622L35.46 2.21622" stroke="white" stroke-width="2" stroke-linecap="round" />
    <path
        d="M35.1919 17.7806L30.3658 15.3676C29.4817 14.9255 28.4414 15.5685 28.4414 16.557V21.1187C28.4414 22.1072 29.4817 22.7501 30.3658 22.3081L35.1919 19.895C36.0631 19.4594 36.0631 18.2162 35.1919 17.7806Z"
        fill="white" />
</svg>