<svg width="35" height="35" viewBox="0 0 35 35" fill="none" xmlns="http://www.w3.org/2000/svg">
    <path fill-rule="evenodd" clip-rule="evenodd"
        d="M7.83717 14.798C7.44141 15.6585 7.44141 16.6374 7.44141 18.5952V24.7097C7.44141 27.4287 7.44141 28.7882 8.28609 29.6329C9.10137 30.4482 10.3963 30.4766 12.9302 30.4776V23.2679C12.9302 21.9192 14.0236 20.8259 15.3722 20.8259H19.6981C21.0468 20.8259 22.1401 21.9192 22.1401 23.2679V30.4776C24.6741 30.4766 25.9689 30.4482 26.7842 29.6329C27.6289 28.7882 27.6289 27.4287 27.6289 24.7097V18.5952C27.6289 16.6374 27.6289 15.6585 27.2331 14.798C26.8374 13.9375 26.0941 13.3005 24.6076 12.0263L23.1657 10.7904C20.4788 8.48735 19.1354 7.33585 17.5352 7.33585C15.9349 7.33585 14.5915 8.48735 11.9046 10.7904L10.4627 12.0263C8.97618 13.3005 8.23293 13.9375 7.83717 14.798ZM20.1401 30.4776V23.2679C20.1401 23.0238 19.9422 22.8259 19.6981 22.8259H15.3722C15.1281 22.8259 14.9302 23.0238 14.9302 23.2679V30.4776H20.1401Z"
        fill="white" />
</svg>